<svg xmlns="http://www.w3.org/2000/svg" version="1.1">
<line x1="0.000000" y1="0.000000" x2="3.703704" y2="3.703704" stroke="blue" stroke-width="2" />
<line x1="3.703704" y1="3.703704" x2="2.348054" y2="8.763057" stroke="blue" stroke-width="2" />
<line x1="2.348054" y1="8.763057" x2="7.407407" y2="7.407407" stroke="blue" stroke-width="2" />
<line x1="7.407407" y1="7.407407" x2="11.111111" y2="11.111111" stroke="blue" stroke-width="2" />
<line x1="11.111111" y1="11.111111" x2="9.755461" y2="16.170464" stroke="blue" stroke-width="2" />
<line x1="9.755461" y1="16.170464" x2="4.696109" y2="17.526114" stroke="blue" stroke-width="2" />
<line x1="4.696109" y1="17.526114" x2="8.399812" y2="21.229816" stroke="blue" stroke-width="2" />
<line x1="8.399812" y1="21.229816" x2="7.044162" y2="26.289169" stroke="blue" stroke-width="2" />
<line x1="7.044162" y1="26.289169" x2="12.103515" y2="24.933519" stroke="blue" stroke-width="2" />
<line x1="12.103515" y1="24.933519" x2="15.807219" y2="28.637224" stroke="blue" stroke-width="2" />
<line x1="15.807219" y1="28.637224" x2="17.162868" y2="23.577871" stroke="blue" stroke-width="2" />
<line x1="17.162868" y1="23.577871" x2="22.222221" y2="22.222221" stroke="blue" stroke-width="2" />
<line x1="22.222221" y1="22.222221" x2="25.925924" y2="25.925924" stroke="blue" stroke-width="2" />
<line x1="25.925924" y1="25.925924" x2="24.570276" y2="30.985277" stroke="blue" stroke-width="2" />
<line x1="24.570276" y1="30.985277" x2="29.629629" y2="29.629629" stroke="blue" stroke-width="2" />
<line x1="29.629629" y1="29.629629" x2="33.333332" y2="33.333332" stroke="blue" stroke-width="2" />
<line x1="33.333332" y1="33.333332" x2="31.977682" y2="38.392685" stroke="blue" stroke-width="2" />
<line x1="31.977682" y1="38.392685" x2="26.918329" y2="39.748337" stroke="blue" stroke-width="2" />
<line x1="26.918329" y1="39.748337" x2="30.622034" y2="43.452042" stroke="blue" stroke-width="2" />
<line x1="30.622034" y1="43.452042" x2="29.266384" y2="48.511395" stroke="blue" stroke-width="2" />
<line x1="29.266384" y1="48.511395" x2="24.207031" y2="49.867046" stroke="blue" stroke-width="2" />
<line x1="24.207031" y1="49.867046" x2="20.503325" y2="46.163342" stroke="blue" stroke-width="2" />
<line x1="20.503325" y1="46.163342" x2="19.147676" y2="51.222694" stroke="blue" stroke-width="2" />
<line x1="19.147676" y1="51.222694" x2="14.088324" y2="52.578346" stroke="blue" stroke-width="2" />
<line x1="14.088324" y1="52.578346" x2="17.792027" y2="56.282047" stroke="blue" stroke-width="2" />
<line x1="17.792027" y1="56.282047" x2="16.436378" y2="61.341400" stroke="blue" stroke-width="2" />
<line x1="16.436378" y1="61.341400" x2="21.495731" y2="59.985752" stroke="blue" stroke-width="2" />
<line x1="21.495731" y1="59.985752" x2="25.199434" y2="63.689453" stroke="blue" stroke-width="2" />
<line x1="25.199434" y1="63.689453" x2="23.843784" y2="68.748810" stroke="blue" stroke-width="2" />
<line x1="23.843784" y1="68.748810" x2="18.784431" y2="70.104462" stroke="blue" stroke-width="2" />
<line x1="18.784431" y1="70.104462" x2="22.488136" y2="73.808159" stroke="blue" stroke-width="2" />
<line x1="22.488136" y1="73.808159" x2="21.132486" y2="78.867516" stroke="blue" stroke-width="2" />
<line x1="21.132486" y1="78.867516" x2="26.191839" y2="77.511864" stroke="blue" stroke-width="2" />
<line x1="26.191839" y1="77.511864" x2="29.895542" y2="81.215576" stroke="blue" stroke-width="2" />
<line x1="29.895542" y1="81.215576" x2="31.251194" y2="76.156219" stroke="blue" stroke-width="2" />
<line x1="31.251194" y1="76.156219" x2="36.310547" y2="74.800568" stroke="blue" stroke-width="2" />
<line x1="36.310547" y1="74.800568" x2="40.014252" y2="78.504272" stroke="blue" stroke-width="2" />
<line x1="40.014252" y1="78.504272" x2="38.658604" y2="83.563629" stroke="blue" stroke-width="2" />
<line x1="38.658604" y1="83.563629" x2="43.717953" y2="82.207970" stroke="blue" stroke-width="2" />
<line x1="43.717953" y1="82.207970" x2="47.421658" y2="85.911674" stroke="blue" stroke-width="2" />
<line x1="47.421658" y1="85.911674" x2="48.777306" y2="80.852318" stroke="blue" stroke-width="2" />
<line x1="48.777306" y1="80.852318" x2="53.836662" y2="79.496674" stroke="blue" stroke-width="2" />
<line x1="53.836662" y1="79.496674" x2="50.132957" y2="75.792969" stroke="blue" stroke-width="2" />
<line x1="50.132957" y1="75.792969" x2="51.488605" y2="70.733612" stroke="blue" stroke-width="2" />
<line x1="51.488605" y1="70.733612" x2="56.547958" y2="69.377960" stroke="blue" stroke-width="2" />
<line x1="56.547958" y1="69.377960" x2="60.251663" y2="73.081665" stroke="blue" stroke-width="2" />
<line x1="60.251663" y1="73.081665" x2="61.607311" y2="68.022316" stroke="blue" stroke-width="2" />
<line x1="61.607311" y1="68.022316" x2="66.666664" y2="66.666664" stroke="blue" stroke-width="2" />
<line x1="66.666664" y1="66.666664" x2="70.370369" y2="70.370369" stroke="blue" stroke-width="2" />
<line x1="70.370369" y1="70.370369" x2="69.014717" y2="75.429726" stroke="blue" stroke-width="2" />
<line x1="69.014717" y1="75.429726" x2="74.074074" y2="74.074074" stroke="blue" stroke-width="2" />
<line x1="74.074074" y1="74.074074" x2="77.777779" y2="77.777779" stroke="blue" stroke-width="2" />
<line x1="77.777779" y1="77.777779" x2="76.422127" y2="82.837128" stroke="blue" stroke-width="2" />
<line x1="76.422127" y1="82.837128" x2="71.362770" y2="84.192780" stroke="blue" stroke-width="2" />
<line x1="71.362770" y1="84.192780" x2="75.066475" y2="87.896484" stroke="blue" stroke-width="2" />
<line x1="75.066475" y1="87.896484" x2="73.710823" y2="92.955833" stroke="blue" stroke-width="2" />
<line x1="73.710823" y1="92.955833" x2="78.770180" y2="91.600182" stroke="blue" stroke-width="2" />
<line x1="78.770180" y1="91.600182" x2="82.473877" y2="95.303894" stroke="blue" stroke-width="2" />
<line x1="82.473877" y1="95.303894" x2="83.829529" y2="90.244537" stroke="blue" stroke-width="2" />
<line x1="83.829529" y1="90.244537" x2="88.888885" y2="88.888885" stroke="blue" stroke-width="2" />
<line x1="88.888885" y1="88.888885" x2="92.592590" y2="92.592590" stroke="blue" stroke-width="2" />
<line x1="92.592590" y1="92.592590" x2="91.236938" y2="97.651947" stroke="blue" stroke-width="2" />
<line x1="91.236938" y1="97.651947" x2="96.296295" y2="96.296295" stroke="blue" stroke-width="2" />
<line x1="96.296295" y1="96.296295" x2="100.000000" y2="100.000000" stroke="blue" stroke-width="2" />
</svg>